<svg xmlns="http://www.w3.org/2000/svg" xmlns:xlink="http://www.w3.org/1999/xlink" width="36" height="35.998" viewBox="0 0 36 35.998">
  <defs>
    <linearGradient id="linear-gradient" x1="0.882" y1="0.882" x2="0.082" y2="0.102" gradientUnits="objectBoundingBox">
      <stop offset="0" stop-color="#1d87c9"/>
      <stop offset="1" stop-color="#36c6d9"/>
    </linearGradient>
    <clipPath id="clip-path">
      <rect id="Rectangle_933" data-name="Rectangle 933" width="36" height="35.998" fill="url(#linear-gradient)"/>
    </clipPath>
  </defs>
  <g id="home" transform="translate(-9120.336 -3837.169)">
    <g id="Group_6791" data-name="Group 6791" transform="translate(9120.336 3837.169)" opacity="0.4">
      <g id="Group_6790" data-name="Group 6790" clip-path="url(#clip-path)">
        <path id="Path_7942" data-name="Path 7942" d="M36,18a95.37,95.37,0,0,1-.514,9.907,8.509,8.509,0,0,1-7.577,7.577A95.389,95.389,0,0,1,18,36a95.374,95.374,0,0,1-9.907-.514A8.509,8.509,0,0,1,.514,27.906a95.7,95.7,0,0,1,0-19.815A8.509,8.509,0,0,1,8.091.514a95.7,95.7,0,0,1,19.817,0,8.509,8.509,0,0,1,7.577,7.577A95.37,95.37,0,0,1,36,18" fill="url(#linear-gradient)"/>
      </g>
    </g>
    <g id="home-2" data-name="home" transform="translate(-34.467 -11.118)">
      <path id="Path_7940" data-name="Path 7940" d="M-4.831-1.428H-.708c4.113,0,6.932-2.478,6.932-6.286S3.4-14-.708-14H-4.831Zm2.909-2.389v-7.794H-.852c2.5,0,4.131,1.491,4.131,3.9s-1.634,3.9-4.131,3.9Z" transform="translate(9166 3874)" fill="#1d87c9"/>
      <path id="Path_7941" data-name="Path 7941" d="M5.635-1.428.948-7.93,5.33-14H2.187L-.651-9.923-3.542-14h-3.3l4.418,6.178L-7.08-1.428h3.34L-.758-5.793,2.277-1.428Z" transform="translate(9178.801 3874)" fill="#1d87c9"/>
    </g>
  </g>
</svg>
